# xmcd
#
# Track frame offsets: 
#        150
#        10407
#        28550
#        49827
#        68700
#        89270
#        115972
#        138020
#        166422
#
# Disc length: 2367 seconds
#
# Revision: 6
# Processed by: cddbd v1.5.2PL0 Copyright (c) Steve Scherf et al.
# Submitted via: ExactAudioCopy v1.0b1
#
DISCID=6e093d09
DTITLE=Mtume - Theater of the Mind
DYEAR=1986
DGENRE=Funk
TTITLE0=Theme from Theater of the Mind
TTITLE1=P.O.P. Generation
TTITLE2=Breathless
TTITLE3=I Don't Believe You Heard Me
TTITLE4=Body and Soul [Take Me Clum Mix]
TTITLE5=New Face Deli
TTITLE6=I'd Rather Be with You
TTITLE7=Deep Freeze (Rap-A-Song) Part I
TTITLE8=Deep Freeze (Tree's Thing) Part II
EXTD=YEAR: 1986
EXTT0=
EXTT1=
EXTT2=
EXTT3=
EXTT4=
EXTT5=
EXTT6=
EXTT7=
EXTT8=
PLAYORDER=
